<?xml version="1.0" encoding="utf-8"?>
<!-- Generator: Adobe Illustrator 16.0.0, SVG Export Plug-In . SVG Version: 6.00 Build 0)  -->
<!DOCTYPE svg PUBLIC "-//W3C//DTD SVG 1.1//EN" "http://www.w3.org/Graphics/SVG/1.1/DTD/svg11.dtd">
<svg version="1.1" xmlns="http://www.w3.org/2000/svg" xmlns:xlink="http://www.w3.org/1999/xlink" x="0px" y="0px"
	 width="90.411px" height="104.315px" viewBox="0 0 90.411 104.315" enable-background="new 0 0 90.411 104.315"
	 xml:space="preserve">
<g id="BACKGROUND">
	<rect x="-64.001" y="-99.22" display="none" fill="#FFFFFF" width="750" height="500"/>
</g>
<g id="OBJECTS">
	<g display="none">
		<path display="inline" d="M538.467,82.751v21.564l20.164-11.463c5.62,1.62,11.595,2.495,17.785,2.495
			c33.183,0,60.079-25.099,60.079-56.056c0-30.959-26.896-56.056-60.079-56.056c-33.181,0-60.079,25.097-60.079,56.056
			C516.337,56.82,524.962,72.473,538.467,82.751L538.467,82.751z"/>
		<path display="inline" fill="#FFFFFF" d="M570,23.937l-32.399,34.305l29.486-16.178l15.407,16.178l32.217-34.305l-29.159,15.896
			L570,23.937z"/>
	</g>
	<g display="none">
		<path display="inline" fill-rule="evenodd" clip-rule="evenodd" d="M222.275-8.6c33.554,0,60.755,27.201,60.755,60.755
			c0,33.554-27.201,60.755-60.755,60.755c-33.554,0-60.754-27.201-60.754-60.755C161.521,18.601,188.722-8.6,222.275-8.6z"/>
		<path display="inline" fill="#FFFFFF" d="M230.17,112.4V65.472h13.229l1.754-16.517H230.17l0.022-8.267
			c0-4.308,0.409-6.615,6.597-6.615h8.272V17.554h-13.233c-15.895,0-21.489,8.012-21.489,21.487v9.916h-9.909v16.518h9.909v46.26
			c3.86,0.769,7.851,1.175,11.937,1.175C224.915,112.91,227.552,112.739,230.17,112.4L230.17,112.4z"/>
	</g>
	<g display="none">
		
			<linearGradient id="SVGID_1_" gradientUnits="userSpaceOnUse" x1="162.2627" y1="571.5977" x2="162.2627" y2="571.5543" gradientTransform="matrix(2478 0 0 -2497.0276 -401513.2812 1427482.375)">
			<stop  offset="0" style="stop-color:#00B3FF"/>
			<stop  offset="1" style="stop-color:#006AFF"/>
		</linearGradient>
		<path display="inline" fill="url(#SVGID_1_)" d="M538.467,279.747v21.564l20.164-11.464c5.62,1.62,11.595,2.495,17.785,2.495
			c33.183,0,60.079-25.1,60.079-56.057c0-30.959-26.896-56.056-60.079-56.056c-33.181,0-60.079,25.097-60.079,56.056
			C516.337,253.816,524.962,269.47,538.467,279.747L538.467,279.747z"/>
		<path display="inline" fill="#FFFFFF" d="M570,220.933l-32.399,34.306l29.486-16.179l15.407,16.179l32.217-34.306l-29.159,15.896
			L570,220.933z"/>
	</g>
	<g>
		<path d="M79.151,22.309c-0.704-0.364-1.389-0.763-2.053-1.195c-1.932-1.276-3.702-2.781-5.274-4.48
			c-3.933-4.501-5.402-9.066-5.943-12.263h0.021C65.45,1.717,65.637,0,65.665,0H47.75v69.275c0,0.93,0,1.849-0.039,2.757
			c0,0.113-0.011,0.217-0.018,0.339c0,0.05,0,0.102-0.011,0.154c0,0.013,0,0.026,0,0.039c-0.383,5.047-3.252,9.573-7.654,12.074
			c-2.259,1.285-4.813,1.959-7.413,1.956c-8.347,0-15.112-6.806-15.112-15.211c0-8.406,6.765-15.212,15.112-15.212
			c1.58-0.001,3.15,0.247,4.653,0.736l0.022-18.241c-9.22-1.191-18.519,1.529-25.643,7.501c-3.088,2.683-5.684,5.884-7.671,9.459
			c-0.756,1.304-3.609,6.543-3.955,15.047c-0.218,4.826,1.232,9.827,1.923,11.894v0.043c0.435,1.217,2.119,5.37,4.864,8.871
			c2.213,2.808,4.828,5.275,7.76,7.321V98.76l0.043,0.043c8.673,5.894,18.289,5.506,18.289,5.506c1.665-0.067,7.241,0,13.574-3.001
			c7.023-3.327,11.022-8.284,11.022-8.284c2.554-2.962,4.585-6.337,6.006-9.981c1.621-4.261,2.162-9.373,2.162-11.416V34.876
			c0.217,0.13,3.112,2.045,3.112,2.045s4.17,2.673,10.677,4.414c4.668,1.239,10.957,1.5,10.957,1.5V25.05
			C88.207,25.289,83.732,24.593,79.151,22.309z"/>
	</g>
	<g display="none">
		
			<radialGradient id="SVGID_2_" cx="97.5435" cy="-100.6934" r="59.0277" gradientTransform="matrix(0 -1.982 -1.8439 0 186.0033 506.0098)" gradientUnits="userSpaceOnUse">
			<stop  offset="0" style="stop-color:#FFDD55"/>
			<stop  offset="0.1" style="stop-color:#FFDD55"/>
			<stop  offset="0.5" style="stop-color:#FF543E"/>
			<stop  offset="1" style="stop-color:#C837AB"/>
		</radialGradient>
		<path display="inline" fill="url(#SVGID_2_)" d="M399.366,185.54c-24.649,0-31.857,0.025-33.259,0.142
			c-5.058,0.421-8.206,1.217-11.635,2.924c-2.643,1.312-4.727,2.834-6.784,4.966c-3.746,3.889-6.017,8.673-6.838,14.359
			c-0.399,2.761-0.516,3.324-0.54,17.426c-0.009,4.7,0,10.887,0,19.184c0,24.629,0.027,31.83,0.146,33.229
			c0.409,4.923,1.181,8.02,2.815,11.406c3.124,6.484,9.091,11.352,16.12,13.168c2.434,0.627,5.122,0.972,8.573,1.136
			c1.462,0.063,16.364,0.108,31.276,0.108s29.823-0.018,31.249-0.091c3.996-0.188,6.316-0.499,8.881-1.162
			c7.074-1.825,12.932-6.62,16.119-13.195c1.603-3.306,2.416-6.521,2.784-11.186c0.08-1.017,0.113-17.233,0.113-33.428
			c0-16.198-0.036-32.385-0.116-33.401c-0.372-4.74-1.185-7.928-2.84-11.297c-1.357-2.759-2.865-4.818-5.054-6.924
			c-3.906-3.73-8.683-6.001-14.375-6.822c-2.758-0.398-3.308-0.517-17.42-0.541H399.366z"/>
		
			<radialGradient id="SVGID_3_" cx="852.186" cy="122.1162" r="59.0306" gradientTransform="matrix(0.1739 0.8687 3.5818 -0.7172 -265.0581 -458.6646)" gradientUnits="userSpaceOnUse">
			<stop  offset="0" style="stop-color:#3771C8"/>
			<stop  offset="0.128" style="stop-color:#3771C8"/>
			<stop  offset="1" style="stop-color:#6600FF;stop-opacity:0"/>
		</radialGradient>
		<path display="inline" fill="url(#SVGID_3_)" d="M399.365,185.545c-24.648,0-31.857,0.025-33.258,0.142
			c-5.059,0.421-8.206,1.217-11.635,2.925c-2.643,1.312-4.727,2.833-6.784,4.965c-3.746,3.889-6.017,8.673-6.838,14.359
			c-0.399,2.761-0.516,3.324-0.54,17.426c-0.009,4.7,0,10.887,0,19.184c0,24.629,0.027,31.83,0.146,33.229
			c0.409,4.923,1.181,8.02,2.815,11.406c3.124,6.484,9.09,11.352,16.119,13.168c2.434,0.627,5.122,0.972,8.573,1.136
			c1.462,0.063,16.365,0.108,31.276,0.108c14.912,0,29.823-0.018,31.249-0.091c3.996-0.188,6.316-0.499,8.881-1.162
			c7.074-1.825,12.932-6.62,16.119-13.195c1.603-3.306,2.416-6.521,2.784-11.186c0.08-1.017,0.113-17.233,0.113-33.428
			c0-16.197-0.036-32.384-0.116-33.401c-0.372-4.74-1.185-7.928-2.839-11.297c-1.358-2.758-2.865-4.817-5.054-6.924
			c-3.906-3.73-8.683-6.001-14.375-6.822c-2.758-0.398-3.308-0.517-17.42-0.541H399.365z"/>
		<path display="inline" fill="#FFFFFF" d="M399.35,200.979c-11.838,0-13.324,0.052-17.974,0.263
			c-4.641,0.213-7.808,0.947-10.58,2.025c-2.867,1.113-5.299,2.603-7.722,5.026c-2.425,2.423-3.914,4.855-5.031,7.722
			c-1.081,2.772-1.816,5.94-2.025,10.579c-0.208,4.649-0.263,6.137-0.263,17.975c0,11.839,0.053,13.319,0.264,17.97
			c0.213,4.641,0.948,7.808,2.025,10.579c1.114,2.867,2.604,5.299,5.027,7.722c2.422,2.425,4.854,3.918,7.719,5.031
			c2.773,1.078,5.942,1.812,10.582,2.025c4.649,0.212,6.134,0.264,17.972,0.264c11.839,0,13.321-0.052,17.97-0.264
			c4.641-0.213,7.812-0.947,10.585-2.025c2.866-1.113,5.295-2.606,7.717-5.031c2.424-2.423,3.914-4.854,5.031-7.721
			c1.072-2.772,1.807-5.94,2.025-10.579c0.208-4.65,0.263-6.132,0.263-17.971c0-11.838-0.055-13.324-0.263-17.974
			c-0.218-4.641-0.954-7.808-2.025-10.58c-1.117-2.866-2.606-5.299-5.031-7.722c-2.425-2.425-4.85-3.914-7.719-5.026
			c-2.779-1.078-5.948-1.812-10.589-2.025c-4.649-0.211-6.13-0.263-17.972-0.263H399.35z M395.44,208.834
			c1.161-0.002,2.456,0,3.91,0c11.639,0,13.018,0.041,17.614,0.25c4.25,0.194,6.557,0.905,8.093,1.501
			c2.034,0.79,3.484,1.735,5.009,3.261c1.526,1.525,2.47,2.979,3.262,5.013c0.597,1.535,1.308,3.842,1.501,8.092
			c0.209,4.595,0.254,5.976,0.254,17.608s-0.045,13.014-0.254,17.608c-0.194,4.25-0.904,6.557-1.501,8.092
			c-0.79,2.034-1.736,3.482-3.262,5.007c-1.525,1.526-2.974,2.471-5.009,3.261c-1.535,0.6-3.843,1.308-8.093,1.502
			c-4.595,0.209-5.976,0.254-17.614,0.254c-11.639,0-13.019-0.045-17.614-0.254c-4.25-0.196-6.557-0.906-8.094-1.503
			c-2.034-0.79-3.487-1.734-5.013-3.26c-1.526-1.526-2.47-2.976-3.262-5.011c-0.597-1.534-1.308-3.841-1.501-8.092
			c-0.209-4.595-0.251-5.975-0.251-17.615s0.042-13.014,0.251-17.609c0.194-4.25,0.904-6.557,1.501-8.093
			c0.79-2.034,1.736-3.487,3.262-5.013c1.525-1.525,2.979-2.471,5.013-3.262c1.537-0.6,3.844-1.309,8.094-1.504
			c4.021-0.181,5.58-0.235,13.704-0.245V208.834z M422.619,216.071c-2.888,0-5.231,2.341-5.231,5.229c0,2.888,2.343,5.23,5.231,5.23
			c2.888,0,5.23-2.343,5.23-5.23c0-2.889-2.343-5.231-5.23-5.231V216.071z M399.35,222.184c-12.362,0-22.385,10.022-22.385,22.385
			s10.023,22.381,22.385,22.381c12.363,0,22.382-10.019,22.382-22.381S411.712,222.184,399.35,222.184L399.35,222.184z
			 M399.35,230.038c8.024,0,14.53,6.505,14.53,14.53c0,8.024-6.506,14.53-14.53,14.53c-8.025,0-14.53-6.506-14.53-14.53
			C384.82,236.543,391.325,230.038,399.35,230.038z"/>
	</g>
	<g display="none">
		<path display="inline" d="M399.346,5.667c16.065,0,17.968,0.062,24.312,0.351c5.866,0.268,9.052,1.248,11.172,2.071
			c2.613,0.965,4.978,2.502,6.918,4.501c1.999,1.94,3.536,4.305,4.5,6.918c0.824,2.12,1.804,5.306,2.072,11.172
			c0.29,6.344,0.351,8.247,0.351,24.312s-0.062,17.968-0.351,24.312c-0.268,5.866-1.248,9.052-2.072,11.172
			c-2.024,5.247-6.171,9.395-11.418,11.419c-2.12,0.824-5.306,1.804-11.172,2.071c-6.343,0.29-8.246,0.351-24.312,0.351
			c-16.066,0-17.969-0.062-24.312-0.351c-5.866-0.268-9.052-1.248-11.172-2.071c-2.613-0.965-4.978-2.503-6.918-4.501
			c-1.998-1.941-3.536-4.305-4.501-6.918c-0.824-2.12-1.804-5.306-2.071-11.172c-0.29-6.344-0.351-8.247-0.351-24.312
			s0.062-17.968,0.351-24.312c0.268-5.866,1.248-9.052,2.071-11.172c0.965-2.613,2.503-4.978,4.501-6.918
			c1.94-1.998,4.305-3.536,6.918-4.5c2.12-0.824,5.306-1.804,11.172-2.072C381.378,5.729,383.281,5.667,399.346,5.667
			 M399.346-5.173c-16.34,0-18.39,0.069-24.806,0.362c-6.404,0.292-10.777,1.309-14.604,2.796c-4.015,1.511-7.651,3.879-10.656,6.94
			c-3.062,3.005-5.43,6.642-6.942,10.656c-1.486,3.827-2.503,8.201-2.794,14.605c-0.294,6.416-0.363,8.466-0.363,24.806
			c0,16.34,0.069,18.39,0.363,24.806c0.292,6.404,1.309,10.778,2.796,14.604c1.511,4.015,3.879,7.651,6.94,10.657
			c3.005,3.061,6.642,5.429,10.656,6.939c3.827,1.487,8.201,2.504,14.604,2.797c6.417,0.292,8.466,0.362,24.806,0.362
			s18.39-0.069,24.806-0.362c6.404-0.292,10.777-1.31,14.604-2.797c8.082-3.125,14.47-9.514,17.596-17.596
			c1.487-3.827,2.504-8.201,2.796-14.604c0.293-6.417,0.362-8.466,0.362-24.806c0-16.34-0.069-18.39-0.362-24.806
			c-0.292-6.404-1.309-10.778-2.796-14.604c-1.511-4.015-3.879-7.651-6.94-10.657c-3.005-3.061-6.642-5.43-10.657-6.941
			c-3.827-1.486-8.201-2.503-14.604-2.794C417.735-5.104,415.686-5.173,399.346-5.173L399.346-5.173L399.346-5.173z"/>
		<path display="inline" d="M399.346,24.097c-17.063,0-30.896,13.833-30.896,30.896c0,17.063,13.833,30.896,30.896,30.896
			s30.896-13.833,30.896-30.896l0,0C430.242,37.929,416.409,24.097,399.346,24.097z M399.346,75.047
			c-11.076,0-20.055-8.979-20.055-20.055s8.979-20.055,20.055-20.055s20.055,8.979,20.055,20.055
			C419.401,66.068,410.422,75.047,399.346,75.047z"/>
		<circle display="inline" cx="431.462" cy="22.876" r="7.22"/>
	</g>
	<g display="none">
		
			<linearGradient id="SVGID_4_" gradientUnits="userSpaceOnUse" x1="-68285.9531" y1="71325.7266" x2="-68285.9531" y2="70681.2578" gradientTransform="matrix(0.1983 0 0 -0.1983 13763.3789 14322.5869)">
			<stop  offset="0" style="stop-color:#00B2FF"/>
			<stop  offset="1" style="stop-color:#006AFF"/>
		</linearGradient>
		<path display="inline" fill-rule="evenodd" clip-rule="evenodd" fill="url(#SVGID_4_)" d="M222.275,179.802
			c33.554,0,60.755,27.201,60.755,60.755s-27.201,60.755-60.755,60.755c-33.554,0-60.754-27.201-60.754-60.755
			S188.722,179.802,222.275,179.802z"/>
		<path display="inline" fill="#FFFFFF" d="M230.17,300.802v-46.929h13.229l1.754-16.517H230.17l0.022-8.267
			c0-4.309,0.409-6.615,6.597-6.615h8.272v-16.52h-13.233c-15.895,0-21.489,8.012-21.489,21.487v9.916h-9.909v16.518h9.909v46.26
			c3.86,0.77,7.851,1.176,11.937,1.176C224.915,301.312,227.552,301.141,230.17,300.802L230.17,300.802z"/>
	</g>
	<g display="none">
		<path display="inline" d="M-8.646,177.339H99.056c5.819,0,10.537,4.718,10.537,10.537v107.701c0,5.818-4.717,10.536-10.537,10.536
			H-8.646c-5.819,0-10.537-4.718-10.537-10.536V187.876C-19.182,182.057-14.464,177.339-8.646,177.339z"/>
		<path display="inline" fill="#EE1D52" d="M12.368,257.55l0.258,0.74C12.593,258.209,12.497,257.952,12.368,257.55z
			 M22.814,240.664c0.467-4.009,2.044-6.246,5.006-8.548c4.25-3.106,9.545-1.352,9.545-1.352v-10.447
			c1.288-0.032,2.575,0.049,3.847,0.241V234c0,0-5.296-1.755-9.545,1.352c-2.962,2.302-4.54,4.54-5.006,8.548
			c-0.016,2.173,0.37,5.022,2.173,7.469c-0.451-0.241-0.902-0.515-1.369-0.821C23.523,247.778,22.798,243.609,22.814,240.664z
			 M63.121,201.001c-2.913-3.332-4.024-6.712-4.426-9.078h3.67c0,0-0.724,6.213,4.604,12.314l0.081,0.08
			C65.6,203.384,64.28,202.257,63.121,201.001L63.121,201.001z M80.811,210.467v13.167c0,0-4.684-0.193-8.161-1.111
			c-4.845-1.287-7.952-3.268-7.952-3.268s-2.157-1.416-2.318-1.513v27.203c0,1.514-0.402,5.296-1.61,8.451
			c-1.577,4.121-4.024,6.841-4.475,7.389c0,0-2.978,3.67-8.209,6.133c-4.716,2.221-8.869,2.173-10.109,2.221
			c0,0-7.163,0.29-13.618-4.072c-1.4-0.966-2.704-2.061-3.896-3.268l0.032,0.032c6.455,4.378,13.618,4.072,13.618,4.072
			c1.239-0.048,5.392,0,10.108-2.221c5.231-2.463,8.209-6.133,8.209-6.133c0.451-0.548,2.897-3.269,4.475-7.389
			c1.207-3.155,1.609-6.938,1.609-8.451v-27.188c0.177,0.097,2.318,1.514,2.318,1.514s3.107,1.979,7.952,3.268
			c3.477,0.917,8.161,1.11,8.161,1.11v-10.318C78.558,210.467,79.926,210.562,80.811,210.467z"/>
		<path display="inline" fill="#FFFFFF" d="M76.948,210.08v10.318c0,0-4.684-0.193-8.161-1.111
			c-4.845-1.287-7.952-3.268-7.952-3.268s-2.157-1.416-2.318-1.513v27.203c0,1.514-0.402,5.296-1.609,8.451
			c-1.578,4.12-4.024,6.841-4.475,7.389c0,0-2.978,3.67-8.209,6.133c-4.716,2.221-8.869,2.173-10.108,2.221
			c0,0-7.164,0.29-13.618-4.072l-0.032-0.032c-0.676-0.692-1.32-1.416-1.916-2.173c-2.06-2.624-3.316-5.715-3.638-6.6v-0.017
			c-0.515-1.529-1.578-5.231-1.433-8.788c0.257-6.294,2.382-10.174,2.946-11.14c1.481-2.64,3.429-5.006,5.714-6.985
			c2.028-1.707,4.33-3.075,6.792-4.024c2.672-1.127,5.538-1.723,8.435-1.771v10.446c0,0-5.296-1.755-9.545,1.353
			c-2.962,2.302-4.54,4.539-5.006,8.547c-0.016,2.946,0.708,7.115,4.668,9.899c0.467,0.307,0.918,0.58,1.369,0.821
			c0.692,0.934,1.529,1.755,2.495,2.431c3.879,2.56,7.115,2.736,11.268,1.078c2.769-1.11,4.845-3.605,5.811-6.39
			c0.612-1.739,0.596-3.478,0.596-5.28v-51.284h9.658c0.402,2.366,1.497,5.746,4.427,9.078c1.175,1.256,2.495,2.383,3.927,3.316
			c0.418,0.467,2.592,2.721,5.393,4.121C73.857,209.162,75.387,209.71,76.948,210.08L76.948,210.08z"/>
		<g display="inline">
			<path fill="#69C9D0" d="M11.064,249.839l0.241,0.692C11.273,250.45,11.177,250.209,11.064,249.839z"/>
			<path fill="#69C9D0" d="M28.931,222.088c-2.479,0.95-4.765,2.318-6.792,4.024c-2.302,1.98-4.233,4.362-5.714,7.002
				c-0.563,0.966-2.688,4.829-2.946,11.139c-0.145,3.574,0.934,7.26,1.433,8.789v0.017c0.322,0.869,1.577,3.976,3.638,6.6
				c0.596,0.757,1.24,1.48,1.916,2.173c-2.189-1.513-4.121-3.332-5.779-5.408c-2.044-2.592-3.3-5.666-3.622-6.567v-0.032
				c-0.515-1.529-1.594-5.231-1.433-8.806c0.257-6.293,2.382-10.173,2.946-11.139c1.481-2.64,3.413-5.022,5.714-7.002
				c2.028-1.706,4.33-3.074,6.792-4.024c1.545-0.644,3.155-1.11,4.797-1.416c2.479-0.435,5.006-0.467,7.501-0.113v2.994
				C34.469,220.366,31.604,220.961,28.931,222.088L28.931,222.088z"/>
			<path fill="#69C9D0" d="M58.694,191.923h-9.658v51.284c0,1.803,0,3.541-0.596,5.28c-0.982,2.769-3.058,5.279-5.811,6.39
				c-4.153,1.675-7.405,1.481-11.268-1.078c-0.966-0.66-1.803-1.481-2.495-2.415c3.3,1.755,6.246,1.723,9.9,0.258
				c2.769-1.11,4.845-3.621,5.811-6.391c0.611-1.738,0.595-3.477,0.595-5.279v-51.284h13.344
				C58.501,188.688,58.356,189.959,58.694,191.923z M76.948,207.23v2.85c-1.561-0.37-3.09-0.918-4.523-1.642
				c-2.785-1.385-4.958-3.654-5.393-4.121c0.499,0.322,0.998,0.611,1.529,0.886C71.974,206.893,75.306,207.408,76.948,207.23z"/>
		</g>
		<path display="inline" fill="#69C9D0" d="M59.016,289.18c0,0.37,0.048,0.724,0.161,1.078c0,0.032,0.016,0.049,0.016,0.081
			c0.531,1.706,2.108,2.865,3.896,2.865v4.12c-2.012,0-3.445,0.064-5.634-1.224c-2.479-1.48-3.879-4.169-3.879-6.97
			c0-2.881,1.561-5.778,4.233-7.179c1.932-1.015,3.396-1.015,5.295-1.015v4.121c-2.253,0-4.072,1.819-4.072,4.072L59.016,289.18z"/>
		<path display="inline" fill="#EE1D52" d="M67.193,289.18c0,0.37-0.048,0.724-0.161,1.078c0,0.032-0.016,0.049-0.016,0.081
			c-0.531,1.706-2.108,2.865-3.896,2.865v4.12c1.996,0,3.445,0.064,5.618-1.224c2.495-1.48,3.895-4.169,3.895-6.97
			c0-2.881-1.561-5.778-4.233-7.179c-1.931-1.015-3.396-1.015-5.295-1.015v4.121c2.253,0,4.072,1.819,4.072,4.072v0.049H67.193z"/>
		<path display="inline" fill="#FFFFFF" d="M0.054,277.203h15.083l-1.4,4.153H9.792v15.888H4.947v-15.888H0.054V277.203z
			 M40.038,277.203v4.153h4.894v15.888h4.861v-15.888h3.944l1.4-4.153H40.038z M18.42,281.92c1.304,0,2.35-1.046,2.35-2.351
			c0-1.304-1.046-2.35-2.35-2.35c-1.304,0-2.351,1.046-2.351,2.35C16.07,280.874,17.116,281.92,18.42,281.92z M16.07,297.228h4.765
			v-13.649H16.07V297.228z M37.961,281.808h-5.569l-4.797,4.796v-9.4h-4.732l-0.016,20.009h4.781v-5.216l1.481-1.352l4.636,6.567
			h5.103l-6.712-9.594L37.961,281.808z M83.644,287.634l5.827-5.826h-5.569l-4.797,4.796v-9.4h-4.732l-0.032,20.024h4.781v-5.215
			l1.497-1.353l4.636,6.567h5.103L83.644,287.634z M71.395,289.115c0,4.523-3.718,8.193-8.306,8.193
			c-4.588,0-8.306-3.67-8.306-8.193s3.718-8.193,8.306-8.193C67.676,280.922,71.395,284.592,71.395,289.115z M67.161,289.115
			c0-2.254-1.819-4.072-4.072-4.072c-2.254,0-4.073,1.818-4.073,4.072c0,2.253,1.819,4.072,4.073,4.072
			C65.342,293.188,67.161,291.368,67.161,289.115z"/>
	</g>
</g>
</svg>
