<?xml version="1.0" encoding="UTF-8"?>
<!DOCTYPE svg PUBLIC "-//W3C//DTD SVG 1.1//EN" "http://www.w3.org/Graphics/SVG/1.1/DTD/svg11.dtd">
<!-- Creator: CorelDRAW X8 -->
<svg xmlns="http://www.w3.org/2000/svg" xml:space="preserve" width="40.9841mm" height="18.3308mm" version="1.1" style="shape-rendering:geometricPrecision; text-rendering:geometricPrecision; image-rendering:optimizeQuality; fill-rule:evenodd; clip-rule:evenodd"
viewBox="0 0 819 366"
 xmlns:xlink="http://www.w3.org/1999/xlink">
 <defs>
  <style type="text/css">
   <![CDATA[
    .fil0 {fill:#000}
   ]]>
  </style>
 </defs>
 <g id="Camada_x0020_1">
  <metadata id="CorelCorpID_0Corel-Layer"/>
  <g id="_637173152">
   <g>
    <path class="fil0" d="M62 332l0 -15 16 0 0 15c14,-3 25,-14 28,-27l-16 0 0 -17 16 0c-3,-14 -14,-25 -28,-28l0 16 -16 0 0 -16c-14,3 -25,14 -28,28l15 0 0 17 -15 0c3,13 14,24 28,27zm-62 -44l17 0c4,-23 22,-41 45,-44l0 -18 16 0 0 18c23,3 41,21 45,44l17 0 0 17 -17 0c-4,23 -22,41 -45,44l0 17 -16 0 0 -17c-23,-3 -41,-21 -45,-44l-17 0 0 -17z"/>
    <path class="fil0" d="M296 341c-25,0 -45,-20 -45,-45 0,-25 20,-45 45,-45 12,0 23,5 31,13l18 -18c-13,-12 -30,-20 -49,-20 -38,0 -70,32 -70,70 0,39 32,70 70,70 19,0 36,-7 49,-19l-18 -18c-8,8 -19,12 -31,12z"/>
    <path class="fil0" d="M296 115c-25,0 -45,-20 -45,-45 0,-25 20,-45 45,-45 25,0 45,20 45,45 0,25 -20,45 -45,45zm0 -115c-38,0 -70,31 -70,70 0,39 32,70 70,70 39,0 70,-31 70,-70 0,-39 -31,-70 -70,-70z"/>
    <path class="fil0" d="M523 115l0 0 -1 0 -37 0 -8 0 0 -90 8 0 38 0c25,0 45,20 45,45 0,25 -20,45 -45,45zm0 -115l0 0 -54 0 -16 0 0 0 0 16 0 0 0 107 0 0 0 17 0 0 16 0 53 0c0,0 0,0 1,0 38,0 70,-31 70,-70 0,-39 -32,-70 -70,-70z"/>
    <polygon class="fil0" points="123,0 123,0 70,53 16,0 16,0 0,0 0,140 25,140 25,43 64,82 76,82 115,43 115,140 140,140 140,0 "/>
    <polygon class="fil0" points="757,0 753,0 745,0 741,0 679,140 679,140 706,140 749,43 792,140 819,140 819,140 "/>
    <path class="fil0" d="M749 342l0 0 -1 0 -37 0 -7 0 0 -91 7 0 38 0c25,0 45,20 45,45 0,25 -20,46 -45,46zm0 -116l0 0 -53 0 -17 0 0 0 0 17 0 0 0 107 0 0 0 16 0 0 17 0 52 0c0,0 1,0 1,0 39,0 70,-31 70,-70 0,-38 -31,-70 -70,-70z"/>
    <polygon class="fil0" points="531,226 526,226 519,226 514,226 453,366 453,366 480,366 523,269 566,366 593,366 593,366 "/>
   </g>
  </g>
 </g>
</svg>
