<svg width="160" height="90" viewBox="0 0 160 90" fill="none" xmlns="http://www.w3.org/2000/svg">
<g clip-path="url(#clip0_313_27)">
<path fill-rule="evenodd" clip-rule="evenodd" d="M25.6899 67.9289V65.5845H28.1905V67.9289C30.3785 67.46 32.0977 65.7408 32.5665 63.7091H30.0659V61.0522H32.5665C32.0977 58.8641 30.3785 57.145 28.1905 56.6761V59.1767H25.6899V56.6761C23.5018 57.145 21.7827 58.8641 21.3138 61.0522H23.6581V63.7091H21.3138C21.7827 65.7408 23.5018 67.46 25.6899 67.9289ZM16 61.0522H18.6569C19.2821 57.4575 22.0952 54.6444 25.6899 54.1755V51.3623H28.1905V54.1755C31.7851 54.6444 34.5983 57.4575 35.2234 61.0522H37.8803V63.7091H35.2234C34.5983 67.3037 31.7851 70.1169 28.1905 70.5858V73.2426H25.6899V70.5858C22.0952 70.1169 19.2821 67.3037 18.6569 63.7091H16V61.0522Z" fill="black"/>
<path fill-rule="evenodd" clip-rule="evenodd" d="M62.2644 69.3354C58.3572 69.3354 55.2314 66.2097 55.2314 62.3025C55.2314 58.3953 58.3572 55.2695 62.2644 55.2695C64.1398 55.2695 65.859 56.0509 67.1093 57.3013L69.9225 54.4881C67.8908 52.6126 65.2339 51.3623 62.2644 51.3623C56.3254 51.3623 51.3242 56.3635 51.3242 62.3025C51.3242 68.3977 56.3254 73.2426 62.2644 73.2426C65.2339 73.2426 67.8908 72.1486 69.9225 70.2732L67.1093 67.46C65.859 68.7103 64.1398 69.3354 62.2644 69.3354Z" fill="black"/>
<path fill-rule="evenodd" clip-rule="evenodd" d="M62.2644 34.0142C58.3572 34.0142 55.2314 30.8884 55.2314 26.9812C55.2314 23.074 58.3572 19.9482 62.2644 19.9482C66.1716 19.9482 69.2974 23.074 69.2974 26.9812C69.2974 30.8884 66.1716 34.0142 62.2644 34.0142ZM62.2644 16.041C56.3254 16.041 51.3242 20.8859 51.3242 26.9812C51.3242 33.0764 56.3254 37.9214 62.2644 37.9214C68.3596 37.9214 73.2046 33.0764 73.2046 26.9812C73.2046 20.8859 68.3596 16.041 62.2644 16.041Z" fill="black"/>
<path fill-rule="evenodd" clip-rule="evenodd" d="M97.737 34.0142H97.5808H91.7981H90.5478V19.9482H91.7981H97.737C101.644 19.9482 104.77 23.074 104.77 26.9812C104.77 30.8884 101.644 34.0142 97.737 34.0142ZM97.737 16.041H89.2975H86.7969V18.5416V35.2645V37.9214H89.2975H97.5808C97.5808 37.9214 97.5808 37.9214 97.737 37.9214C103.676 37.9214 108.677 33.0764 108.677 26.9812C108.677 20.8859 103.676 16.041 97.737 16.041Z" fill="black"/>
<path fill-rule="evenodd" clip-rule="evenodd" d="M35.2234 16.041L26.9402 24.3243L18.5006 16.041H16V37.9214H19.9072V22.7614L26.0024 28.8566H27.8779L33.9731 22.7614V37.9214H37.8803V16.041H35.2234Z" fill="black"/>
<path fill-rule="evenodd" clip-rule="evenodd" d="M134.312 16.041H133.686H132.436H131.811L122.121 37.9214H126.341L133.061 22.7614L139.782 37.9214H144.001L134.312 16.041Z" fill="black"/>
<path fill-rule="evenodd" clip-rule="evenodd" d="M133.061 69.4917H132.905H127.122H126.028V55.2695H127.122H133.061C136.968 55.2695 140.094 58.3953 140.094 62.3025C140.094 66.2097 136.968 69.4917 133.061 69.4917ZM133.061 51.3623H124.778H122.121V54.0192V70.742V73.2426H124.778H132.905H133.061C139.157 73.2426 144.001 68.3977 144.001 62.3025C144.001 56.3635 139.157 51.3623 133.061 51.3623Z" fill="black"/>
<path fill-rule="evenodd" clip-rule="evenodd" d="M98.9874 51.3623H98.2059H97.1119H96.3305L86.7969 73.2426H91.0167L97.737 58.0827L104.457 73.2426H108.677L98.9874 51.3623Z" fill="black"/>
</g>
<defs>
<clipPath id="clip0_313_27">
<rect width="128" height="57.2501" fill="white" transform="translate(16 16.0156)"/>
</clipPath>
</defs>
</svg>
