<svg width="160" height="90" viewBox="0 0 160 90" fill="none" xmlns="http://www.w3.org/2000/svg">
<path fill-rule="evenodd" clip-rule="evenodd" d="M76.2389 59.3913V53.038H83.0111V59.3913C88.6663 58.0997 93.0997 53.6663 94.3913 48.0111H88.038V41.2389H94.3913C93.0997 35.6186 88.6663 31.1503 83.0111 29.8587V36.247H76.2389V29.8587C70.6186 31.1503 66.1503 35.6186 64.8587 41.2389H71.247V48.0111H64.8587C66.1503 53.6663 70.6186 58.0997 76.2389 59.3913ZM51 41.2389H58.0166C59.4479 31.8834 66.8834 24.4479 76.2389 23.0166V16H83.0111V23.0166C92.4015 24.4479 99.8021 31.8834 101.268 41.2389H108.25V48.0111H101.268C99.8021 57.3666 92.4015 64.8021 83.0111 66.2683V73.25H76.2389V66.2683C66.8834 64.8021 59.4479 57.3666 58.0166 48.0111H51V41.2389Z" fill="black"/>
</svg>
