<?xml version="1.0" encoding="utf-8"?>
<!-- Generator: Adobe Illustrator 16.0.0, SVG Export Plug-In . SVG Version: 6.00 Build 0)  -->
<!DOCTYPE svg PUBLIC "-//W3C//DTD SVG 1.1 Tiny//EN" "http://www.w3.org/Graphics/SVG/1.1/DTD/svg11-tiny.dtd">
<svg version="1.1" baseProfile="tiny" id="Layer_1" xmlns="http://www.w3.org/2000/svg" xmlns:xlink="http://www.w3.org/1999/xlink"
	 x="0px" y="0px" width="289.006px" height="61.987px" viewBox="0 0 289.006 61.987" xml:space="preserve">
<g>
	<path fill="#D95334" d="M286.903,52.503c-0.439-2.789-2.67-4.99-5.496-5.424v-2.076h-2.011v2.076
		c-2.827,0.434-5.057,2.635-5.497,5.424h-2.104v1.984h2.104c0.44,2.789,2.67,4.988,5.497,5.422v2.077h2.011V59.91
		c2.826-0.434,5.057-2.633,5.496-5.422h2.104v-1.984H286.903z M284.831,54.488c-0.378,1.672-1.729,3.006-3.424,3.377v-1.891h-2.011
		v1.891c-1.696-0.371-3.048-1.705-3.424-3.377h1.917v-1.984h-1.917c0.376-1.674,1.728-3.006,3.424-3.377v1.889h2.011v-1.889
		c1.695,0.371,3.046,1.703,3.424,3.377h-1.917v1.984H284.831z M196.917,48.041c1.476,0,2.826,0.559,3.831,1.488l2.167-2.107
		c-1.57-1.488-3.676-2.418-5.998-2.418c-4.744,0-8.607,3.812-8.607,8.491c0,4.681,3.863,8.492,8.607,8.492
		c2.322,0,4.428-0.931,5.998-2.387l-2.167-2.138c-1.005,0.93-2.355,1.518-3.831,1.518c-3.048,0-5.561-2.448-5.561-5.485
		C191.356,50.489,193.869,48.041,196.917,48.041z M113.43,45.003c-4.743,0-8.605,3.812-8.605,8.491c0,4.681,3.863,8.492,8.605,8.492
		s8.607-3.812,8.607-8.492C122.037,48.816,118.172,45.003,113.43,45.003z M113.43,58.98c-3.046,0-5.559-2.448-5.559-5.485
		c0-3.006,2.513-5.454,5.559-5.454c3.079,0,5.56,2.448,5.56,5.454C118.99,56.532,116.508,58.98,113.43,58.98z M141.258,45.003
		h-8.605v16.983h8.605c4.743,0,8.605-3.812,8.605-8.492C149.864,48.816,146.001,45.003,141.258,45.003z M141.258,58.98h-5.56V48.01
		h5.56c3.078,0,5.561,2.448,5.561,5.484C146.819,56.532,144.336,58.98,141.258,58.98z M85.602,51.511l-6.565-6.508h-2.042v16.983
		h3.047V50.242l4.806,4.771h1.507l4.805-4.771v11.745h3.047V45.003h-2.042L85.602,51.511z M168.083,45.003l-7.602,16.983h3.329
		l5.277-11.808l5.276,11.808h3.329l-7.601-16.983H168.083z M252.573,45.003h-8.605v16.983h8.605c4.742,0,8.605-3.812,8.605-8.492
		C261.178,48.816,257.315,45.003,252.573,45.003z M252.573,58.98h-5.561V48.01h5.561c3.078,0,5.559,2.448,5.559,5.484
		C258.131,56.532,255.651,58.98,252.573,58.98z M223.739,45.003l-7.602,16.983h3.33l5.276-11.808l5.277,11.808h3.329l-7.602-16.983
		H223.739z"/>
</g>
<path fill="#383535" d="M236.336,27.933c0.63,0.414,1.783,0.57,3.042,0.57c1.285,0,2.622-0.182,3.618-0.52
	c1.391-0.44,2.832-2.256,1.993-3.5c-0.708-1.037-1.966-1.996-3.513-3.396c-0.787-0.727-1.758-1.426-1.207-2.334
	c0.971-1.686,5.795-2.801,7.814-3.656c0.629-0.648-0.105-1.893-0.918-1.764c-2.674,0.441-8.6,2.541-9.1,5.99
	c-0.287,1.944,0.918,2.619,1.967,3.578c0.813,0.752,2.414,1.971,3.41,2.826c-1.391,0.389-3.462,0.701-5.062,0.701
	c-0.628,0-1.152-0.053-1.572-0.208C235.813,25.91,235.813,27.57,236.336,27.933z M228.549,18.91c0.551,0.803,1.39,1.555,2.596,2.125
	c-0.131,2.749-4.326,6.613-6.87,6.197c-1.128-0.154-1.232-1.478-0.892-3.163C223.83,21.735,227.264,19.272,228.549,18.91z
	 M240.664,17.845c1.862-1.166,1.651-2.281-0.026-1.736c-1.259,0.414-7.211,5.004-7.787,3.008c-0.368-1.479-0.813-2.672-2.256-3.216
	c-1.075-0.39-1.809,0.389-2.438,1.322c-2.806,0.337-6.372,4.124-6.844,6.612c-0.394,2.074,0.026,4.538,2.098,5.16
	c2.491,0.752,6.529-0.752,8.443-4.175c0.603-1.037,0.944-2.1,1.102-3.086C237.36,21.113,239.641,18.494,240.664,17.845z
	 M196.348,18.728c0.446,0.699-1.441,2.566-3.986,3.94C192.678,21.009,195.51,17.405,196.348,18.728z M197.686,28.84
	c3.619-1.504,6.582-5.653,8.916-9.568c1.101-1.867,1.127-3.553-0.236-1.763c-2.623,3.448-5.979,9.619-11.04,9.879
	c-1.888,0.104-3.067-1.375-2.989-2.619c2.91-1.634,4.327-2.308,5.455-4.486c1.021-1.918-0.158-3.889-1.836-3.76
	c-2.676,0.233-4.904,3.346-5.533,6.25c-0.131,0.648-0.184,1.322-0.157,1.893C190.527,29.177,194.487,30.137,197.686,28.84z
	 M178.045,23.083c1.049-3.033,4.826-5.212,6.268-4.46c-0.184,0.726-0.472,1.271-0.63,1.53c-0.498,0.881-0.131,1.089,0.42,0.83
	c0.497-0.234,1.626-0.752,1.835-1.867c0.105-0.648-0.209-1.453-0.76-1.867c-0.578-0.416-1.206-0.52-1.73-0.493
	c-1.967,0.104-6.109,2.022-7.342,6.172c-1.26,4.175,1.049,6.716,3.881,6.534c5.479-0.312,9.15-2.801,11.616-4.59
	c0.733-0.544,0.157-1.971-0.211-1.737c-3.774,2.516-5.244,3.112-9.36,3.993C179.829,27.622,177.049,25.988,178.045,23.083z
	 M153.948,31.07c2.098,0.623,6.24-1.764,7.919-3.578c3.671-3.993,3.198-5.783,2.098-4.486c-2.517,2.854-7.814,6.742-10.357,6.042
	L153.948,31.07z M153.607,29.047c-0.944-0.233-0.996-1.919-0.682-3.163c0.366-1.426,1.075-2.801,1.626-3.863
	c0.498-0.96-0.971-2.412-1.495-1.634c-0.394,0.622-0.839,1.167-1.259,1.737c-0.053,0-0.078,0-0.078,0
	c-1.232-0.752-2.701-1.141-4.275-1.09c-1.939,0.078-3.959,0.805-5.715,2.178c-1.627,1.297-2.544,2.957-2.858,4.564
	c-0.315,1.557-0.026,2.956,0.917,3.968c0.473,0.519,1.102,0.7,1.809,0.675c2.965-0.104,7.344-3.994,9.283-5.887
	c0.21,2.618,1.338,4.02,3.068,4.537L153.607,29.047z M141.099,30.111c-0.839,0.104-1.022-0.83-0.683-1.737
	c1.286-3.397,5.193-4.927,7.998-5.03c0.812-0.026,1.574,0.078,2.072,0.285C148.022,26.429,143.852,29.722,141.099,30.111z
	 M161.028,29.929c0,0.985,1.311,1.815,1.547,0.985c0.578-1.894,0.734-2.255,0.996-2.774c2.256-4.46,8.471-8.246,10.936-8.143
	c-0.079,0.182-0.105,0.363-0.158,0.52c-0.156,0.518,0.42,0.907,1.338-0.104c0.472-0.545,0.104-1.92-0.971-2.18
	c-2.596-0.621-7.578,3.086-9.309,5.161c0.184-0.856,0.84-1.687,1.075-2.541c0.079-0.39-0.079-1.063-0.446-1.374
	c-0.393-0.338-0.864-0.338-1.022,0.104C162.444,27.803,161,29.333,161.028,29.929z M113.959,25.677c0.025,0,0.053-0.026,0.078-0.053
	L113.959,25.677z M80.291,35.634c-0.813,0.104-0.97-0.778-0.656-1.659c1.232-3.268,5.008-4.745,7.683-4.849
	c0.787-0.027,1.521,0.104,2.019,0.283C86.951,32.109,82.939,35.271,80.291,35.634z M79.032,37.216
	c0.445,0.518,1.049,0.674,1.756,0.648c2.832-0.104,7.054-3.838,8.889-5.653c0.21,2.515,1.285,3.812,2.937,4.304
	c2.099,0.622,6.242-1.764,7.92-3.578c3.67-3.993,3.225-5.782,2.098-4.486c-2.492,2.854-7.788,6.743-10.358,6.043
	c-0.918-0.234-0.918-1.712-0.604-2.931c0.341-1.349,1.022-2.696,1.547-3.683c0.499-0.934-0.917-2.334-1.442-1.581
	c-0.368,0.597-0.813,1.114-1.207,1.659c-0.026,0-0.052,0-0.052,0c-1.18-0.727-2.622-1.09-4.117-1.037
	c-1.862,0.078-3.802,0.752-5.507,2.1c-1.546,1.221-2.464,2.827-2.752,4.383C77.852,34.882,78.115,36.23,79.032,37.216z
	 M49.401,39.498c-0.079,0.83,1.101,2.178,1.626,1.686c2.517-2.489,4.799-7.546,7.972-9.982c-0.053,2.748-0.053,6.016,0.209,7.545
	c0.131,0.777,1.049,1.479,1.521,1.142c1.705-1.271,3.277-4.46,6.188-7.157c0.079,0.622,0.158,1.4,0.42,2.1
	c0.314,0.83,0.786,2.256,1.468,2.931c0.997,0.959,2.203,1.323,3.33,1.271c3.042-0.104,7.5-6.119,8.653-8.09
	c1.338-1.297-0.236-1.531-0.524-1.244c-1.232,1.244-7.211,7.337-8.942,7.416c-0.734,0.024-1.364-0.234-1.809-0.778
	c-0.892-1.089-0.708-4.306-1.023-5.679c-0.157-0.778-1.101-1.453-1.521-1.09c-2.124,1.92-4.195,5.523-6.267,7.443
	c-0.026-2.465,0.367-5.629,0-7.416c-0.157-0.83-1.075-1.428-1.548-1.143c-2.569,1.583-4.982,5.731-7.394,8.506
	c0.419-2.334,0.918-4.9,1.206-6.742c0.341-0.908-1.101-2.411-1.495-1.193c-0.576,1.79-1.18,5.109-1.599,7.365
	C49.69,37.372,49.479,38.409,49.401,39.498z M39.358,43.777c3.094,0.414,8.836-6.872,10.672-9.932
	c0.419-0.701,0.813-2.282,0.052-1.479c-1.101,1.09-9.938,11.643-11.878,9.23c-0.839-1.062,0.026-4.484,1.705-10.086
	c1.468-4.85,5.349-13.64,7.315-17.191c0.105-0.338-0.131-0.908-0.525-1.271c-0.419-0.337-0.733-0.285-0.917,0.078
	c-2.387,4.33-5.821,11.202-7.421,16.596c-1.574,5.213-2.518,8.609-2.098,10.631C36.683,42.247,37.758,43.568,39.358,43.777z
	 M22.603,39.162c2.623-0.571,6.162-2.257,8.155-4.436c2.176-2.386,0.787-4.745-1.888-4.305c-3.724,0.234-6.713,2.982-7.919,6.25
	c-0.288,0.727-0.393,1.504-0.445,2.178c-0.315,5.835,5.061,6.509,8.627,4.615c4.064-2.126,5.532-4.537,7.84-8.66
	c0.812-1.452,1.442-3.993,0.367-2.672c-2.518,3.139-5.769,9.492-11.197,10.166C23.73,42.583,22.314,40.535,22.603,39.162z
	 M30.102,32.316c0.577,0.803-3.409,3.474-7.002,4.614C23.73,34.182,29.026,30.785,30.102,32.316z M25.697,6.852
	C19.115,7.629,7.63,8.33,2.727,11.959c-1.521,1.142-2.308,2.386-2.623,3.76c-0.499,2.204,0.892,3.683,2.098,3.915
	c0.734,0.156,1.705,0.209,1.836-0.129c-1.049-1.711-1.548-3.76,0.262-5.315C9.334,9.859,18.197,9.6,24.936,8.848
	c-2.595,5.109-8.732,17.269-10.699,22.3c-2.595,6.561-5.48,14.133-5.532,15.739c-0.079,1.479,3.068,0.597,3.54-0.647
	c0.236-0.389,1.652-6.949,2.334-8.945c3.33-9.699,7.395-19.631,12.35-28.628C33.747,8.2,39.384,8.459,45.677,5.684
	c1.914-0.856,3.514-1.997,3.462-2.412c-0.026-0.181-0.367-0.441-1.049-0.078c-6.556,3.268-13.295,3.241-20.427,3.553
	c0.209-0.363,0.734-1.348,0.445-1.841c-0.209-0.441-0.76-0.493-1.127-0.234C26.588,5.01,26.142,5.996,25.697,6.852z M207.676,29.566
	c2.359,0.389,7.289-6.741,9.125-9.334c-0.078,2.178-0.812,4.381-0.367,6.949c0.158,0.83,0.578,1.504,1.128,1.659
	c0.184-0.155,0.524-0.337,0.394-1.192c-0.367-2.568-0.079-3.864,0.734-7.209c1.888-7.779,4.195-10.605,8.889-18.852
	c0.184-0.337,0-0.804-0.576-0.959c-0.525-0.104-1.206,0.077-1.417,0.44c-3.46,5.938-5.952,10.294-7.893,15.532
	c-2.359,2.619-8.89,12.239-10.226,10.554c-0.84-1.038,0.393-5.835,2.385-11.694c2.125-6.302,3.803-9.206,6.871-13.925
	c0.104-0.311-0.105-0.933-0.498-1.296c-0.395-0.363-0.709-0.285-0.918,0.052c-4.012,6.95-3.305,6.146-6.975,13.925
	c-2.701,5.705-3.094,10.891-2.858,12.524C205.684,28.166,206.102,29.306,207.676,29.566z M127.044,6.203
	c-4.249,0.83-7.919,1.66-10.935,4.693c-1.128,1.141-0.892,2.826-0.158,3.993c-0.053,0.26-1.284,0.571-1.757,0.519
	c-0.786-0.129-1.834-1.115-1.651-2.748c0.131-0.984,0.655-1.842,1.469-2.8c2.543-3.008,8.889-4.797,13.792-5.55
	c0.368-0.648,1.286-2.281,2.019-2.126c0.053,0,0.105,0.026,0.158,0.052c0.131,0.052,0.184,0.156,0.236,0.286
	c0.025,0.104,0.025,0.207,0,0.311c-0.026,0.078-0.053,0.156-0.078,0.208c-0.211,0.415-0.236,0.467-0.264,0.544
	c-0.025,0.104-0.078,0.208-0.367,0.804c13.322-0.908,11.67,9.464,2.99,13.432c3.723,1.504,4.354,4.408,3.277,7.727
	c-1.861,5.654-7.709,8.947-17.779,9.336c-2.07,0.077-7.892,0.596-7.708,0.104c0.105-0.675,5.297-1.271,7.578-1.322
	c5.664-0.545,10.123-1.764,13.74-5.42c3.121-3.164,4.064-7.701-0.996-9.438c-1.074,0.44-5.139,2.101-5.559-0.052
	c-0.131-2.152,4.064-2.697,5.822-2.101c6.03-2.23,11.904-10.891-1.836-10.476c-0.499,1.089-1.129,2.179-1.6,3.19
	c-1.049,2.178-2.072,4.122-3.068,6.301c-1.861,4.797-5.48,13.562-6.031,16.051c-0.498,0.57-2.701,1.582-2.779,0.675
	c0.105-0.597,2.334-6.38,3.094-8.272c0.971-2.541,1.652-4.277,2.911-6.846c0.63-1.27,1.259-2.541,1.81-3.76
	c0.76-1.686,1.415-2.878,2.098-4.123C125.996,8.433,126.441,7.422,127.044,6.203z"/>
</svg>
