<?xml version="1.0" encoding="UTF-8"?>
<!DOCTYPE svg PUBLIC "-//W3C//DTD SVG 1.1//EN" "http://www.w3.org/Graphics/SVG/1.1/DTD/svg11.dtd">
<!-- Creator: CorelDRAW X8 -->
<svg xmlns="http://www.w3.org/2000/svg" xml:space="preserve" width="38.6875mm" height="38.6874mm" version="1.1" style="shape-rendering:geometricPrecision; text-rendering:geometricPrecision; image-rendering:optimizeQuality; fill-rule:evenodd; clip-rule:evenodd"
viewBox="0 0 2468 2468"
 xmlns:xlink="http://www.w3.org/1999/xlink">
 <defs>
  <style type="text/css">
   <![CDATA[
    .fil0 {fill:#D95942}
    .fil1 {fill:white}
   ]]>
  </style>
 </defs>
 <g id="Camada_x0020_1">
  <metadata id="CorelCorpID_0Corel-Layer"/>
  <g id="_636719944">
   <circle class="fil0" cx="1234" cy="1234" r="1234"/>
   <path class="fil1" d="M1137 1657l0 -182 194 0 0 182c162,-37 289,-164 326,-326l-182 0 0 -194 182 0c-37,-161 -164,-289 -326,-326l0 183 -194 0 0 -183c-161,37 -289,165 -326,326l183 0 0 194 -183 0c37,162 165,289 326,326zm-723 -520l201 0c41,-268 254,-481 522,-522l0 -201 194 0 0 201c269,41 481,254 523,522l200 0 0 194 -200 0c-42,268 -254,481 -523,523l0 200 -194 0 0 -200c-268,-42 -481,-255 -522,-523l-201 0 0 -194z"/>
  </g>
 </g>
</svg>
