<?xml version="1.0" encoding="UTF-8"?>
<!DOCTYPE svg PUBLIC "-//W3C//DTD SVG 1.1//EN" "http://www.w3.org/Graphics/SVG/1.1/DTD/svg11.dtd">
<!-- Creator: CorelDRAW X8 -->
<svg xmlns="http://www.w3.org/2000/svg" xml:space="preserve" width="140.876mm" height="19.2689mm" version="1.1" style="shape-rendering:geometricPrecision; text-rendering:geometricPrecision; image-rendering:optimizeQuality; fill-rule:evenodd; clip-rule:evenodd"
viewBox="0 0 14088 1927"
 xmlns:xlink="http://www.w3.org/1999/xlink">
 <defs>
  <style type="text/css">
   <![CDATA[
    .fil0 {fill:#D85135}
    .fil1 {fill:#202020;fill-rule:nonzero}
   ]]>
  </style>
 </defs>
 <g id="Camada_x0020_1">
  <metadata id="CorelCorpID_0Corel-Layer"/>
  <g id="_2708965828448">
   <g>
    <path class="fil0" d="M8856 570l0 -83 88 0 0 83c75,-17 133,-75 150,-149l-84 0 0 -89 84 0c-17,-74 -76,-133 -150,-150l0 84 -88 0 0 -84c-75,17 -133,76 -150,150l84 0 0 89 -84 0c17,74 75,132 150,149zm-332 -238l92 0c19,-123 116,-221 240,-240l0 -92 88 0 0 92c124,19 221,117 240,240l92 0 0 89 -92 0c-19,123 -116,221 -240,240l0 92 -88 0 0 -92c-124,-19 -221,-117 -240,-240l-92 0 0 -89z"/>
    <path class="fil0" d="M5247 619c-134,0 -243,-109 -243,-243 0,-134 109,-242 243,-242 65,0 124,25 167,67l95 -95c-68,-65 -160,-106 -262,-106 -208,0 -376,169 -376,376 0,208 168,377 376,377 102,0 194,-41 262,-107l-94 -94c-44,42 -103,67 -168,67z"/>
    <path class="fil0" d="M1594 619c-134,0 -243,-109 -243,-243 0,-134 109,-242 243,-242 134,0 243,108 243,242 0,134 -109,243 -243,243zm0 -619c-208,0 -376,169 -376,376 0,208 168,377 376,377 208,0 376,-169 376,-377 0,-207 -168,-376 -376,-376z"/>
    <path class="fil0" d="M2812 620l0 0 -4 0 -202 0 -38 0 0 -487 39 0 205 0c134,0 243,109 243,243 0,135 -109,244 -243,244zm0 -620l0 0 -288 0 -89 0 0 0 0 89 0 0 0 575 0 0 0 89 0 0 89 0 282 0c2,0 4,0 6,0 208,0 376,-169 376,-377 0,-207 -168,-376 -376,-376z"/>
    <polygon class="fil0" points="664,0 664,0 376,288 89,0 89,0 0,0 0,753 133,753 133,233 343,443 409,443 620,233 620,753 753,753 753,0 "/>
    <polygon class="fil0" points="4074,0 4048,0 4007,0 3985,0 3653,753 3653,753 3798,753 4029,229 4260,753 4406,753 4406,753 "/>
    <path class="fil0" d="M7682 620l0 0 -4 0 -201 0 -38 0 0 -487 38 0 205 0c135,0 244,109 244,243 0,135 -109,244 -244,244zm0 -620l0 0 -287 0 -89 0 0 0 0 89 0 0 0 575 0 0 0 89 0 0 89 0 282 0c2,0 3,0 5,0 208,0 377,-169 377,-377 0,-207 -169,-376 -377,-376z"/>
    <polygon class="fil0" points="6509,0 6483,0 6442,0 6420,0 6088,753 6088,753 6234,753 6465,229 6696,753 6841,753 6841,753 "/>
   </g>
   <g>
    <path class="fil1" d="M13674 1239c22,15 62,20 105,20 45,0 91,-7 125,-18 48,-16 98,-79 69,-122 -25,-37 -68,-69 -121,-118 -28,-26 -61,-50 -42,-82 33,-59 199,-98 270,-127 21,-23 -4,-66 -32,-62 -92,16 -297,89 -314,209 -10,68 32,91 68,125 27,26 83,68 118,98 -48,14 -120,24 -175,24 -22,0 -40,-2 -54,-6 -35,-12 -35,47 -17,59zm-269 -314c19,28 49,54 90,74 -4,95 -149,230 -237,216 -39,-6 -42,-52 -31,-111 16,-81 135,-167 178,-179zm419 -38c63,-40 56,-79 -2,-60 -43,14 -248,174 -268,104 -12,-51 -28,-92 -78,-111 -37,-14 -63,13 -84,46 -97,12 -220,143 -236,230 -13,73 1,158 72,180 86,26 226,-26 292,-145 20,-36 32,-74 37,-108 152,-22 231,-113 267,-136zm-1529 31c15,25 -50,89 -138,137 11,-57 109,-183 138,-137zm46 353c125,-53 227,-198 307,-334 39,-65 39,-124 -8,-61 -90,120 -206,335 -380,344 -65,4 -106,-48 -103,-91 100,-57 149,-81 188,-156 35,-68 -5,-136 -63,-132 -93,8 -170,117 -191,218 -5,23 -7,46 -5,66 8,157 145,191 255,146zm-677 -201c36,-106 166,-182 216,-156 -7,26 -17,45 -22,54 -17,31 -4,38 15,28 17,-8 56,-25 63,-64 4,-23 -7,-51 -26,-65 -20,-15 -42,-19 -60,-18 -68,4 -210,71 -253,216 -43,145 36,234 134,228 189,-11 316,-98 401,-161 25,-18 5,-68 -8,-60 -130,88 -181,109 -323,139 -76,17 -172,-40 -137,-141zm-831 279c72,21 215,-62 273,-125 127,-140 111,-201 72,-157 -86,100 -269,235 -357,211l12 71zm-12 -71c-33,-8 -35,-67 -23,-111 12,-49 37,-97 55,-134 18,-34 -33,-84 -51,-57 -14,21 -29,41 -44,61 -1,0 -2,0 -2,0 -42,-27 -93,-40 -147,-38 -67,2 -137,27 -197,76 -57,45 -89,102 -99,159 -11,54 -1,103 31,138 16,19 38,24 63,24 102,-4 253,-140 320,-206 7,92 46,141 106,159l-12 -71zm-432 37c-28,4 -34,-29 -23,-60 44,-119 179,-172 276,-176 28,-1 54,3 72,10 -85,97 -229,213 -325,226zm688 -6c0,34 45,63 54,35 19,-67 25,-80 34,-98 77,-155 292,-287 376,-284 -2,7 -3,13 -5,19 -5,18 15,31 47,-4 16,-19 3,-67 -34,-76 -89,-22 -261,108 -321,180 6,-30 29,-59 37,-89 3,-13 -2,-37 -15,-48 -14,-12 -31,-11 -35,4 -89,286 -139,340 -138,361zm-1623 -148c1,-1 2,-1 3,-2l-3 2zm-1162 347c-27,4 -33,-28 -22,-58 42,-114 172,-166 265,-169 27,-1 52,3 69,10 -82,93 -220,204 -312,217zm-43 55c16,18 37,23 61,22 97,-3 243,-133 307,-197 7,88 43,133 101,150 72,22 215,-61 273,-124 127,-140 111,-202 72,-157 -86,100 -269,235 -357,211 -32,-8 -32,-60 -21,-102 12,-47 36,-94 54,-129 16,-33 -33,-81 -50,-55 -13,21 -28,39 -42,58 -1,0 -2,0 -2,0 -41,-25 -90,-38 -142,-36 -64,2 -131,26 -189,73 -54,43 -85,99 -96,153 -9,52 0,99 31,133zm-1022 79c-2,29 38,77 56,59 88,-86 166,-263 275,-348 -2,95 -2,210 7,263 5,27 37,52 52,40 59,-45 114,-155 215,-249 2,21 5,49 14,73 11,29 27,78 51,102 33,33 76,46 114,45 105,-4 259,-215 299,-283 46,-45 -8,-53 -18,-43 -43,43 -249,256 -308,258 -26,1 -48,-8 -63,-27 -31,-38 -24,-150 -35,-198 -6,-27 -38,-51 -53,-38 -73,67 -145,193 -216,260 0,-86 12,-197 0,-259 -6,-29 -37,-50 -53,-40 -89,55 -172,200 -255,297 14,-82 31,-171 42,-235 11,-32 -39,-84 -52,-42 -20,62 -41,178 -56,257 -6,35 -13,71 -16,108zm-346 149c106,15 305,-239 368,-345 15,-25 28,-80 1,-53 -38,39 -342,406 -409,322 -29,-36 1,-156 59,-351 50,-169 185,-476 252,-600 4,-11 -4,-32 -18,-44 -14,-12 -25,-10 -32,3 -81,151 -200,391 -256,578 -54,183 -86,301 -72,371 14,67 52,112 107,119zm-578 -160c90,-20 213,-79 281,-155 75,-83 28,-165 -64,-150 -129,8 -232,104 -274,218 -10,26 -14,52 -15,76 -11,203 174,227 297,161 140,-75 191,-158 271,-302 27,-51 49,-139 13,-94 -87,110 -200,331 -387,355 -83,10 -132,-62 -122,-109zm259 -239c19,28 -118,121 -242,161 22,-96 205,-214 242,-161zm-152 -888c-227,27 -623,52 -792,178 -53,40 -80,83 -91,131 -17,77 31,128 72,137 26,5 59,7 64,-5 -36,-59 -54,-131 9,-185 173,-151 479,-160 712,-186 -90,178 -301,602 -369,777 -90,229 -189,493 -192,549 -2,51 107,21 123,-22 8,-14 57,-243 80,-312 115,-339 255,-685 427,-999 234,-16 429,-7 646,-104 66,-30 121,-70 119,-84 -1,-6 -12,-16 -36,-3 -226,115 -459,113 -704,124 6,-13 25,-46 15,-64 -7,-15 -27,-17 -39,-8 -13,12 -28,46 -44,76zm6276 792c81,14 251,-235 315,-325 -3,75 -29,153 -13,242 5,29 19,52 39,58 6,-6 18,-12 14,-41 -13,-90 -4,-136 24,-253 65,-271 145,-369 307,-656 7,-13 0,-29 -20,-34 -18,-4 -41,3 -48,15 -120,207 -206,359 -273,542 -81,91 -307,427 -353,368 -28,-36 15,-204 82,-408 74,-219 132,-321 238,-486 4,-11 -4,-32 -18,-44 -13,-13 -24,-10 -31,1 -138,243 -114,214 -241,486 -93,199 -106,379 -98,437 7,50 21,89 76,98zm-2781 -815c-146,29 -273,58 -377,164 -39,40 -31,99 -6,140 -2,8 -44,20 -60,17 -27,-4 -64,-39 -57,-95 4,-35 22,-65 51,-99 88,-104 306,-166 475,-193 13,-22 44,-80 70,-74 2,0 4,1 5,2 4,2 7,6 8,10 1,3 1,7 0,11 0,2 -1,5 -2,7 -8,15 -8,17 -9,19 -1,3 -3,7 -13,28 459,-32 403,330 103,468 129,53 151,155 113,270 -64,197 -266,312 -613,325 -72,3 -272,21 -266,4 4,-23 182,-44 261,-46 195,-19 349,-62 474,-189 108,-111 140,-269 -34,-329 -37,15 -177,73 -192,-2 -4,-75 140,-94 201,-73 208,-78 411,-380 -63,-365 -18,38 -39,75 -56,111 -36,75 -71,143 -105,220 -64,167 -190,472 -208,560 -18,19 -93,54 -96,23 4,-21 81,-222 106,-289 34,-88 57,-149 101,-238 22,-45 44,-90 63,-132 26,-58 48,-100 72,-144 18,-33 33,-68 54,-111z"/>
   </g>
  </g>
 </g>
</svg>
