<?xml version="1.0" encoding="UTF-8"?>
<!DOCTYPE svg PUBLIC "-//W3C//DTD SVG 1.1//EN" "http://www.w3.org/Graphics/SVG/1.1/DTD/svg11.dtd">
<!-- Creator: CorelDRAW X8 -->
<svg xmlns="http://www.w3.org/2000/svg" xml:space="preserve" width="94.9001mm" height="21.8902mm" version="1.1" style="shape-rendering:geometricPrecision; text-rendering:geometricPrecision; image-rendering:optimizeQuality; fill-rule:evenodd; clip-rule:evenodd"
viewBox="0 0 9490 2189"
 xmlns:xlink="http://www.w3.org/1999/xlink">
 <defs>
  <style type="text/css">
   <![CDATA[
    .fil0 {fill:#D85135}
    .fil1 {fill:#373435;fill-rule:nonzero}
   ]]>
  </style>
 </defs>
 <g id="Camada_x0020_1">
  <metadata id="CorelCorpID_0Corel-Layer"/>
  <g id="_1871910353056">
   <path class="fil0" d="M9184 2056l0 -61 64 0 0 61c54,-12 97,-55 109,-109l-61 0 0 -64 61 0c-12,-54 -55,-97 -109,-109l0 61 -64 0 0 -61c-54,12 -97,55 -109,109l61 0 0 64 -61 0c12,54 55,97 109,109zm-242 -173l67 0c14,-90 85,-161 175,-175l0 -67 64 0 0 67c90,14 161,85 175,175l67 0 0 64 -67 0c-14,90 -85,161 -175,175l0 67 -64 0 0 -67c-90,-14 -161,-85 -175,-175l-67 0 0 -64z"/>
   <path class="fil0" d="M6558 2092c-97,0 -177,-79 -177,-177 0,-97 80,-176 177,-176 47,0 90,18 122,48l69 -68c-50,-48 -117,-78 -191,-78 -151,0 -274,123 -274,274 0,151 123,274 274,274 74,0 141,-30 191,-77l-69 -69c-32,30 -75,49 -122,49z"/>
   <path class="fil0" d="M3900 2092c-97,0 -177,-79 -177,-177 0,-97 80,-176 177,-176 98,0 177,79 177,176 0,98 -79,177 -177,177zm0 -451c-151,0 -274,123 -274,274 0,151 123,274 274,274 151,0 274,-123 274,-274 0,-151 -123,-274 -274,-274z"/>
   <path class="fil0" d="M4786 2092l0 0 -3 0 -146 0 -28 0 0 -354 28 0 149 0c98,0 177,79 177,177 0,98 -79,177 -177,177zm0 -451l0 0 -209 0 -65 0 0 0 0 65 0 0 0 418 0 0 0 65 0 0 65 0 205 0c1,0 3,0 4,0 151,0 274,-123 274,-274 0,-151 -123,-274 -274,-274z"/>
   <polygon class="fil0" points="3223,1641 3223,1641 3014,1851 2805,1641 2805,1641 2740,1641 2740,2189 2837,2189 2837,1810 2990,1964 3038,1964 3191,1810 3191,2189 3288,2189 3288,1641 "/>
   <polygon class="fil0" points="5704,1641 5686,1641 5656,1641 5640,1641 5398,2189 5398,2189 5504,2189 5672,1808 5840,2189 5946,2189 5946,2189 "/>
   <path class="fil0" d="M8330 2092l0 0 -3 0 -146 0 -28 0 0 -354 28 0 149 0c98,0 177,79 177,177 0,98 -79,177 -177,177zm0 -451l0 0 -209 0 -65 0 0 0 0 65 0 0 0 418 0 0 0 65 0 0 65 0 205 0c1,0 3,0 4,0 151,0 274,-123 274,-274 0,-151 -123,-274 -274,-274z"/>
   <polygon class="fil0" points="7476,1641 7457,1641 7428,1641 7412,1641 7170,2189 7170,2189 7276,2189 7444,1808 7612,2189 7718,2189 7718,2189 "/>
  </g>
  <g>
   <path class="fil1" d="M9013 1077c24,16 68,22 116,22 49,0 100,-7 138,-20 53,-17 108,-87 76,-135 -27,-40 -75,-77 -134,-131 -30,-28 -67,-55 -46,-90 37,-65 221,-108 298,-141 24,-25 -4,-73 -35,-68 -102,17 -328,98 -347,231 -11,75 35,101 75,138 31,29 92,76 130,109 -53,15 -132,27 -193,27 -24,0 -44,-2 -60,-8 -38,-12 -38,52 -18,66zm-297 -348c21,31 53,60 99,82 -5,106 -165,255 -262,239 -43,-6 -47,-57 -34,-122 17,-90 148,-185 197,-199zm462 -41c71,-45 63,-88 -1,-67 -48,16 -275,193 -297,116 -14,-57 -31,-103 -86,-124 -41,-15 -69,15 -93,51 -107,13 -243,159 -261,255 -15,80 1,175 80,199 95,29 249,-29 322,-161 23,-40 36,-81 42,-119 168,-24 255,-125 294,-150zm-1690 34c17,27 -55,99 -152,152 12,-64 120,-203 152,-152zm51 390c138,-58 251,-218 340,-369 42,-72 43,-137 -9,-68 -100,133 -228,371 -421,381 -72,4 -117,-53 -114,-101 111,-63 165,-89 208,-173 39,-74 -6,-150 -70,-145 -102,9 -187,129 -211,241 -5,25 -7,51 -6,73 10,174 161,211 283,161zm-749 -222c40,-117 184,-201 239,-172 -7,28 -18,49 -24,59 -19,34 -5,42 16,32 19,-9 62,-29 70,-72 4,-25 -8,-56 -29,-72 -22,-16 -46,-20 -66,-19 -75,4 -233,78 -280,238 -48,161 40,259 148,252 209,-12 349,-108 443,-177 28,-21 6,-76 -8,-67 -144,97 -200,120 -357,154 -84,19 -190,-44 -152,-156zm-919 308c80,24 238,-68 302,-138 140,-154 122,-223 80,-173 -96,110 -298,260 -395,233l13 78zm-13 -78c-36,-9 -38,-74 -26,-122 14,-55 41,-108 62,-149 19,-37 -37,-93 -57,-63 -15,24 -32,45 -48,67 -2,0 -3,0 -3,0 -47,-29 -103,-44 -163,-42 -74,3 -151,31 -218,84 -62,50 -97,114 -109,176 -12,60 -1,114 35,153 18,20 42,27 69,26 113,-4 280,-154 354,-227 8,101 51,155 117,175l-13 -78zm-477 41c-32,4 -39,-32 -26,-67 49,-131 198,-190 305,-194 31,-1 60,3 79,11 -94,108 -253,235 -358,250zm760 -7c0,38 50,70 59,38 22,-73 28,-87 38,-107 86,-172 323,-318 417,-314 -3,7 -4,14 -6,20 -6,20 16,35 51,-4 18,-21 4,-74 -37,-84 -99,-24 -289,119 -355,199 7,-33 32,-65 41,-98 3,-15 -3,-41 -17,-53 -15,-13 -33,-13 -39,4 -98,317 -153,376 -152,399zm-1795 -164c1,0 2,-1 3,-2l-3 2zm-1284 384c-31,4 -37,-30 -25,-64 47,-126 191,-183 293,-187 30,-1 58,4 77,11 -91,104 -244,226 -345,240zm-48 61c17,20 40,26 67,25 108,-4 269,-148 339,-218 8,97 49,147 112,166 80,24 238,-68 302,-138 140,-154 123,-223 80,-173 -95,110 -297,260 -395,233 -35,-9 -35,-66 -23,-113 13,-52 39,-104 59,-142 19,-36 -35,-90 -55,-61 -14,23 -31,43 -46,64 -1,0 -2,0 -2,0 -45,-28 -100,-42 -157,-40 -71,3 -145,29 -210,81 -59,47 -94,109 -105,169 -11,57 -1,109 34,147zm-1130 88c-3,32 42,84 62,65 96,-96 183,-291 304,-385 -2,106 -2,232 8,291 5,30 40,57 58,44 65,-49 125,-172 236,-276 3,24 6,54 16,81 12,32 30,87 56,113 38,37 84,51 127,49 116,-4 286,-236 330,-312 51,-50 -9,-59 -20,-48 -47,48 -275,283 -341,286 -28,1 -52,-9 -69,-30 -34,-42 -27,-166 -39,-219 -6,-30 -42,-56 -58,-42 -81,74 -160,213 -239,287 -1,-95 14,-217 0,-286 -6,-32 -41,-55 -59,-44 -98,61 -190,221 -282,328 16,-90 35,-189 46,-260 13,-35 -42,-93 -57,-46 -22,69 -45,197 -61,284 -7,38 -15,78 -18,120zm-383 165c118,16 337,-265 407,-383 16,-27 31,-88 2,-57 -42,42 -379,449 -453,356 -32,-41 1,-173 65,-389 56,-187 204,-526 279,-663 4,-13 -5,-35 -20,-49 -16,-13 -28,-11 -35,3 -91,167 -222,432 -283,640 -60,201 -96,332 -80,410 16,73 57,124 118,132zm-639 -178c100,-22 235,-87 311,-171 83,-92 30,-183 -72,-166 -142,9 -256,115 -302,241 -11,28 -15,58 -17,84 -12,225 193,251 329,178 155,-82 211,-175 299,-334 31,-56 55,-154 14,-103 -96,121 -220,366 -427,392 -92,11 -146,-68 -135,-121zm286 -264c22,31 -130,134 -267,178 24,-106 226,-237 267,-178zm-168 -982c-251,30 -689,57 -876,197 -58,44 -88,92 -100,145 -19,85 34,142 80,151 28,6 65,8 70,-5 -40,-66 -59,-145 10,-205 192,-167 530,-177 787,-206 -99,197 -333,666 -408,860 -99,253 -209,545 -211,607 -3,57 117,23 135,-25 9,-15 63,-268 89,-345 127,-374 282,-757 471,-1104 260,-18 475,-8 715,-115 73,-33 134,-77 132,-93 -1,-7 -14,-17 -40,-3 -250,126 -507,125 -779,137 8,-14 28,-52 17,-71 -8,-17 -29,-19 -43,-9 -15,13 -32,51 -49,84zm6940 876c90,15 278,-260 348,-360 -3,84 -31,169 -14,268 6,32 22,58 43,64 7,-6 20,-13 15,-46 -14,-99 -3,-149 28,-278 72,-300 160,-409 339,-727 7,-13 0,-31 -22,-37 -20,-4 -46,3 -54,17 -132,229 -227,397 -301,599 -90,101 -339,472 -390,407 -32,-40 15,-225 91,-451 81,-243 145,-355 262,-537 4,-12 -4,-36 -19,-50 -15,-14 -27,-11 -35,2 -153,268 -126,237 -266,537 -103,220 -118,420 -109,483 8,55 24,99 84,109zm-3075 -901c-162,32 -302,64 -417,181 -43,44 -34,109 -6,154 -2,10 -49,22 -67,20 -30,-5 -70,-43 -63,-106 5,-38 25,-71 56,-108 97,-116 339,-185 526,-214 14,-25 49,-88 77,-82 2,0 4,1 6,2 5,2 7,6 9,11 1,4 1,8 0,12 -1,3 -2,6 -3,8 -8,16 -9,18 -10,21 -1,4 -3,8 -14,31 508,-35 445,365 114,518 142,58 166,170 125,298 -71,218 -294,345 -678,360 -79,3 -301,23 -294,4 4,-26 202,-49 289,-51 216,-21 386,-68 524,-209 119,-122 155,-297 -38,-364 -41,17 -196,81 -212,-2 -5,-83 155,-104 222,-81 230,-86 454,-420 -70,-404 -19,42 -43,84 -61,123 -40,84 -79,159 -117,243 -71,185 -209,523 -230,619 -19,22 -103,61 -106,26 4,-23 89,-246 118,-319 37,-98 63,-165 111,-264 24,-49 48,-98 69,-145 29,-65 54,-111 80,-159 20,-37 37,-76 60,-123z"/>
  </g>
 </g>
</svg>
